<svg width="260" height="260" viewBox="0 0 260 260" fill="none" xmlns="http://www.w3.org/2000/svg">
<rect width="260" height="260" fill="#312F2F"/>
<path d="M206.75 152.574L229.75 113.284L214.25 86.9254L204.25 103.835L209.75 113.284L186.75 152.574H206.75Z" fill="#2EC0FF"/>
<path d="M146.25 152.574H167.25L209.75 78.968L206.25 73H192.75L146.25 152.574Z" fill="#2EC0FF"/>
<path d="M87.25 152.574H107.25H126.75L138.25 133.178H118.25L141.75 92.8935H161.75L173.25 73H153.25H133.75L87.25 152.574Z" fill="#2EC0FF"/>
<path d="M113.25 73H93.75L50.25 147.6L53.25 152.574H67.25L113.25 73Z" fill="#2EC0FF"/>
<path d="M53.25 73L30.25 112.787L45.25 138.648L55.25 121.739L50.25 112.787L72.75 73H53.25Z" fill="#2EC0FF"/>
<path d="M71.3904 174.064H73.6505V176.312L77.8454 183.039V174.064H80.1055V185.88C80.1055 186.216 80.0151 186.486 79.8343 186.69C79.6535 186.894 79.4184 186.995 79.1291 186.995C78.7072 186.995 78.2793 186.774 77.8454 186.33L73.5466 179.127L73.6505 185.88C73.6505 186.216 73.5601 186.486 73.3793 186.69C73.1985 186.894 72.9695 186.995 72.6922 186.995C72.2703 186.995 71.8364 186.324 71.3904 185.88L64.75 174.064H66.75L71.3904 182.153V174.064Z" fill="#2EC0FF"/>
<path d="M84.8901 186.995H82.6299V174.064H84.8901V179.37H88.1266V174.064H90.3868V186.995H88.1266V181.618H84.8901V186.995Z" fill="#2EC0FF"/>
<path d="M100.103 186.995L95.0592 178.565V186.995H92.799V175.197C92.799 174.85 92.8894 174.574 93.0703 174.37C93.2511 174.166 93.4801 174.064 93.7573 174.064C94.1792 174.064 94.6132 174.286 95.0592 174.73L102.363 186.995H100.103Z" fill="#2EC0FF"/>
<path d="M107.425 176.312V186.995H105.164V176.312H101.838V174.064H110.733V176.312H107.425Z" fill="#2EC0FF"/>
<path d="M118.405 186.995C116.38 186.995 114.752 186.306 113.523 184.927C112.414 183.668 111.859 182.158 111.859 180.395C111.859 178.656 112.39 177.206 113.451 176.043C114.656 174.724 116.307 174.064 118.405 174.064H120.303V176.312H118.405C117.151 176.312 116.121 176.714 115.313 177.517C114.505 178.321 114.101 179.34 114.101 180.575C114.101 181.714 114.457 182.673 115.168 183.452C115.964 184.316 117.043 184.747 118.405 184.747H120.303V186.995H118.405Z" fill="#2EC0FF"/>
<path d="M141.214 186.433L136.098 178.021V186.995H133.838V175.197C133.838 174.85 133.928 174.574 134.109 174.37C134.29 174.166 134.525 174.064 134.814 174.064C135.236 174.064 135.664 174.286 136.098 174.73L141.214 181.937V174.064H143.402V185.871C143.402 186.699 142.911 186.995 142.344 186.995C141.922 186.995 141.732 186.949 141.214 186.433Z" fill="#2EC0FF"/>
<path d="M158.919 186.995H156.424L159.859 180.611L156.279 174.064H158.865L161.125 178.273L163.385 174.064H165.971L158.919 186.995Z" fill="#2EC0FF"/>
<path d="M167.334 186.995V174.064H171.059C173.144 174.064 174.79 174.724 175.995 176.043C177.068 177.206 177.604 178.656 177.604 180.395C177.604 182.158 177.05 183.668 175.941 184.927C174.711 186.306 173.084 186.995 171.059 186.995H167.334ZM169.594 176.312V184.747H171.059C172.421 184.747 173.494 184.316 174.277 183.452C174.989 182.673 175.344 181.714 175.344 180.575C175.344 179.34 174.94 178.321 174.133 177.517C173.337 176.714 172.313 176.312 171.059 176.312H169.594Z" fill="#2EC0FF"/>
<path d="M184.595 186.995H178.791V174.064H184.595V176.312H181.051V179.316H184.017V181.564H181.051V184.747H184.595V186.995Z" fill="#2EC0FF"/>
<path d="M193.315 174.073L188.157 183.043V174.069H185.897V185.885C185.897 186.221 185.987 186.49 186.168 186.694C186.349 186.898 186.578 187 186.855 187C187.277 187 187.711 186.762 188.157 186.319L195.25 174.073H193.315Z" fill="#2EC0FF"/>
<path d="M129.712 186.995L124.668 178.565V186.995H122.408V175.197C122.408 174.85 122.498 174.574 122.679 174.37C122.86 174.166 123.089 174.064 123.366 174.064C123.788 174.064 124.222 174.286 124.668 174.73L131.972 186.995H129.712Z" fill="#2EC0FF"/>
<path d="M152.515 186.433L147.399 178.021V186.995H145.139V175.197C145.139 174.85 145.229 174.574 145.41 174.37C145.591 174.166 145.826 174.064 146.115 174.064C146.537 174.064 146.965 174.286 147.399 174.73L152.515 181.937V174.064H154.703V185.871C154.703 186.699 154.211 186.995 153.645 186.995C153.223 186.995 153.033 186.949 152.515 186.433Z" fill="#2EC0FF"/>
</svg>
